<svg width="191" height="21" viewBox="0 0 191 21" fill="none" xmlns="http://www.w3.org/2000/svg">
<path d="M0.791016 20V18.1689H2.27051C2.74902 18.1689 3.03223 18.0273 3.12012 17.7441C3.20801 17.4609 3.25195 17.1484 3.25195 16.8066V4.35547C3.25195 3.90625 3.21777 3.54492 3.14941 3.27148C3.08105 2.98828 2.78809 2.84668 2.27051 2.84668H0.893555V1.03027H16.9043V5.99609H14.8389V5.32227C14.8389 4.58008 14.7852 4.05762 14.6777 3.75488C14.5703 3.44238 14.4141 3.25684 14.209 3.19824C14.0039 3.12988 13.7549 3.0957 13.4619 3.0957H6.63574V9.37988H10.9717C11.1475 9.37988 11.2939 9.36035 11.4111 9.32129C11.5283 9.27246 11.6211 9.14551 11.6895 8.94043C11.7578 8.72559 11.8164 8.36914 11.8652 7.87109H13.0518V12.7344H11.8506C11.7822 11.9922 11.6797 11.5527 11.543 11.416C11.4062 11.2695 11.1963 11.1963 10.9131 11.1963H6.63574V17.9639H13.6084C14.1162 17.9639 14.458 17.8076 14.6338 17.4951C14.8096 17.1826 14.9023 16.5039 14.9121 15.459C14.9121 15.3516 14.9121 15.2295 14.9121 15.0928C14.9121 14.9561 14.9121 14.8291 14.9121 14.7119H16.9482V20H0.791016ZM18.9697 20C18.9697 19.9316 18.9697 19.8242 18.9697 19.6777C18.9697 19.5215 18.9648 19.3506 18.9551 19.165C18.9551 18.9795 18.9551 18.8086 18.9551 18.6523C18.9551 18.4961 18.9551 18.3838 18.9551 18.3154C19.6582 18.3154 20.1514 18.2715 20.4346 18.1836C20.7275 18.0859 20.9033 17.9346 20.9619 17.7295C21.0205 17.5244 21.0498 17.2559 21.0498 16.9238V3.49121C21.0498 3.09082 20.874 2.85645 20.5225 2.78809C20.1807 2.70996 19.6826 2.66602 19.0283 2.65625V1.00098C19.2725 1.00098 19.5557 1.00098 19.8779 1.00098C20.2002 0.991211 20.5176 0.986328 20.8301 0.986328C21.1523 0.976562 21.416 0.97168 21.6211 0.97168C22.0312 0.97168 22.4463 0.966797 22.8662 0.957031C23.2861 0.947266 23.7207 0.9375 24.1699 0.927734V17.1289C24.1699 17.6562 24.3311 17.9883 24.6533 18.125C24.9854 18.252 25.5225 18.3154 26.2646 18.3154V20C25.6885 20 25.1123 20 24.5361 20C23.9697 19.9902 23.3008 19.9805 22.5293 19.9707C21.7969 19.9707 21.1572 19.9756 20.6104 19.9854C20.0732 19.9951 19.5264 20 18.9697 20ZM28.0225 20V18.3154C28.7549 18.3154 29.2676 18.291 29.5605 18.2422C29.8633 18.1934 30.0439 18.0957 30.1025 17.9492C30.1709 17.793 30.2051 17.5635 30.2051 17.2607V9.2041C30.2051 8.83301 30.0635 8.61816 29.7803 8.55957C29.5068 8.50098 28.9453 8.47168 28.0957 8.47168V6.83105C28.2617 6.83105 28.5156 6.83105 28.8574 6.83105C29.209 6.83105 29.5312 6.83594 29.8242 6.8457C30.1172 6.8457 30.2637 6.8457 30.2637 6.8457C30.7324 6.8457 31.2109 6.83594 31.6992 6.81641C32.1875 6.79688 32.6855 6.78223 33.1934 6.77246V9.48242C33.6523 8.54492 34.2969 7.81738 35.127 7.2998C35.9668 6.78223 36.9678 6.52344 38.1299 6.52344C38.5596 6.52344 39.0088 6.55273 39.4775 6.61133V10.2148C39.292 10.2148 39.0967 10.2148 38.8916 10.2148C38.6865 10.2148 38.4961 10.2197 38.3203 10.2295C38.1543 9.78027 37.9346 9.43359 37.6611 9.18945C37.3877 8.94531 37.0117 8.82324 36.5332 8.82324C35.6445 8.82324 34.9121 9.21875 34.3359 10.0098C33.7598 10.791 33.4473 11.8115 33.3984 13.0713C33.3887 13.1006 33.3789 13.2568 33.3691 13.54C33.3691 13.8232 33.3643 14.1699 33.3545 14.5801C33.3545 14.9902 33.3545 15.4053 33.3545 15.8252C33.3545 16.2354 33.3545 16.5967 33.3545 16.9092C33.3545 17.2119 33.3545 17.3926 33.3545 17.4512C33.3545 17.9004 33.5254 18.1592 33.8672 18.2275C34.2188 18.2861 34.8486 18.3154 35.7568 18.3154V20C35.0928 20 34.4385 19.9951 33.7939 19.9854C33.1494 19.9756 32.3779 19.9707 31.4795 19.9707C30.7373 19.9707 30.1123 19.9756 29.6045 19.9854C29.1064 19.9951 28.5791 20 28.0225 20ZM40.7959 20V18.3154C41.4502 18.3154 41.9189 18.291 42.2021 18.2422C42.4854 18.1836 42.6611 18.0811 42.7295 17.9346C42.8076 17.7783 42.8467 17.5439 42.8467 17.2314V9.11621C42.8467 8.79395 42.6953 8.6084 42.3926 8.55957C42.0898 8.51074 41.582 8.48145 40.8691 8.47168C40.8691 8.18848 40.8691 7.91504 40.8691 7.65137C40.8691 7.37793 40.8691 7.10449 40.8691 6.83105C41.2695 6.83105 41.6602 6.83105 42.041 6.83105C42.4219 6.83105 42.7881 6.82617 43.1396 6.81641C43.6182 6.81641 44.0869 6.81152 44.5459 6.80176C45.0146 6.79199 45.4932 6.77734 45.9814 6.75781V17.2754C45.9814 17.7637 46.1279 18.0615 46.4209 18.1689C46.7139 18.2666 47.2461 18.3154 48.0176 18.3154V20C47.7344 20 47.3828 20 46.9629 20C46.5527 19.9902 46.1279 19.9854 45.6885 19.9854C45.249 19.9854 44.8584 19.9854 44.5166 19.9854C44.1748 19.9756 43.9355 19.9707 43.7988 19.9707C43.1934 19.9707 42.6611 19.9756 42.2021 19.9854C41.7432 19.9951 41.2744 20 40.7959 20ZM44.3115 3.97461C43.833 3.97461 43.4424 3.82812 43.1396 3.53516C42.8467 3.23242 42.7002 2.85645 42.7002 2.40723C42.7002 1.94824 42.8467 1.57715 43.1396 1.29395C43.4424 1.00098 43.8281 0.854492 44.2969 0.854492C44.7754 0.854492 45.1562 1.00098 45.4395 1.29395C45.7324 1.57715 45.8789 1.95312 45.8789 2.42188C45.8789 2.87109 45.7324 3.24219 45.4395 3.53516C45.1562 3.82812 44.7803 3.97461 44.3115 3.97461ZM57.2021 20.4248C55.6201 20.4248 54.2773 20.1318 53.1738 19.5459C52.0801 18.9502 51.2451 18.1299 50.6689 17.085C50.0928 16.04 49.8047 14.8291 49.8047 13.4521C49.8047 12.0264 50.1025 10.791 50.6982 9.74609C51.3037 8.69141 52.1436 7.87598 53.2178 7.2998C54.3018 6.71387 55.5664 6.4209 57.0117 6.4209C58.4473 6.4209 59.6924 6.70898 60.7471 7.28516C61.8018 7.85156 62.6172 8.68164 63.1934 9.77539C63.7793 10.8594 64.0771 12.1826 64.0869 13.7451L63.2373 13.9648H52.998C53.0176 15.4688 53.4375 16.6406 54.2578 17.4805C55.0781 18.3203 56.1719 18.7402 57.5391 18.7402C58.4863 18.7402 59.3066 18.54 60 18.1396C60.7031 17.7393 61.2158 17.1143 61.5381 16.2646L63.8379 16.3525C63.4473 17.6807 62.666 18.6914 61.4941 19.3848C60.332 20.0781 58.9014 20.4248 57.2021 20.4248ZM53.0273 12.4707H61.0986C61.0205 11.123 60.6299 10.0586 59.9268 9.27734C59.2334 8.48633 58.2812 8.09082 57.0703 8.09082C55.9082 8.09082 54.9756 8.48633 54.2725 9.27734C53.5791 10.0586 53.1641 11.123 53.0273 12.4707ZM65.918 20V18.3154C66.748 18.2959 67.3145 18.2373 67.6172 18.1396C67.9297 18.0322 68.0859 17.7393 68.0859 17.2607C68.0859 17.2607 68.0859 17.0117 68.0859 16.5137C68.0859 16.0059 68.0859 15.3418 68.0859 14.5215C68.0859 13.7012 68.0859 12.8027 68.0859 11.8262C68.0859 10.8398 68.0859 9.8584 68.0859 8.88184C68.0859 7.89551 68.0859 6.99219 68.0859 6.17188C68.0859 5.35156 68.0859 4.69238 68.0859 4.19434C68.0859 3.69629 68.0859 3.44727 68.0859 3.44727C68.0859 3.03711 67.9102 2.80762 67.5586 2.75879C67.207 2.7002 66.6846 2.66602 65.9912 2.65625V1.00098C66.1475 1.00098 66.3428 1.00098 66.5771 1.00098C66.8115 1.00098 67.0508 1.00098 67.2949 1.00098C67.5391 0.991211 67.7588 0.986328 67.9541 0.986328C68.1494 0.986328 68.2959 0.986328 68.3936 0.986328C68.9014 0.976562 69.375 0.966797 69.8145 0.957031C70.2539 0.947266 70.7178 0.9375 71.2061 0.927734V12.8076L74.9121 9.99512C75.3906 9.63379 75.7764 9.31641 76.0693 9.04297C76.3623 8.75977 76.5088 8.5791 76.5088 8.50098C76.5088 8.44238 76.4258 8.40332 76.2598 8.38379C76.1035 8.36426 75.9082 8.35449 75.6738 8.35449C75.4492 8.34473 75.2295 8.33984 75.0146 8.33984L75.0439 6.83105C75.6006 6.84082 76.0889 6.85059 76.5088 6.86035C76.9287 6.86035 77.3242 6.86035 77.6953 6.86035C78.2617 6.86035 78.8428 6.86035 79.4385 6.86035C80.0439 6.85059 80.7422 6.84082 81.5332 6.83105V8.41309C81.4453 8.41309 81.3184 8.41309 81.1523 8.41309C80.9961 8.40332 80.8691 8.40332 80.7715 8.41309C80.4688 8.42285 80.21 8.45703 79.9951 8.51562C79.7803 8.57422 79.5361 8.69629 79.2627 8.88184C78.9893 9.06738 78.5986 9.35059 78.0908 9.73145L74.3262 12.5439L79.4971 17.4658C79.8584 17.8174 80.1807 18.0469 80.4639 18.1543C80.7568 18.2617 81.0791 18.3203 81.4307 18.3301C81.5479 18.3301 81.665 18.3301 81.7822 18.3301C81.8994 18.3203 82.0264 18.3154 82.1631 18.3154V20C81.8115 20 81.4307 20 81.0205 20C80.6201 19.9902 80.2295 19.9854 79.8486 19.9854C79.4775 19.9756 79.1406 19.9707 78.8379 19.9707C78.0957 19.9707 77.4316 19.9756 76.8457 19.9854C76.2695 19.9951 75.6641 20 75.0293 20V18.3154C75.1855 18.3154 75.3418 18.3154 75.498 18.3154C75.6543 18.3154 75.7715 18.3105 75.8496 18.3008C76.2207 18.2812 76.4062 18.2129 76.4062 18.0957C76.4062 18.0078 76.3477 17.9004 76.2305 17.7734C76.1133 17.6465 75.957 17.4951 75.7617 17.3193L72.0557 13.7891L71.2061 14.3604V17.334C71.2061 17.7344 71.3281 17.998 71.5723 18.125C71.8262 18.252 72.4121 18.3154 73.3301 18.3154V20C72.8027 20 72.2314 20 71.6162 20C71.001 19.9902 70.3516 19.9805 69.668 19.9707C69.5508 19.9707 69.3408 19.9756 69.0381 19.9854C68.7354 19.9854 68.3887 19.9854 67.998 19.9854C67.6172 19.9854 67.2363 19.9902 66.8555 20C66.4844 20 66.1719 20 65.918 20ZM91.1279 20.4248C89.5459 20.4248 88.2031 20.1318 87.0996 19.5459C86.0059 18.9502 85.1709 18.1299 84.5947 17.085C84.0186 16.04 83.7305 14.8291 83.7305 13.4521C83.7305 12.0264 84.0283 10.791 84.624 9.74609C85.2295 8.69141 86.0693 7.87598 87.1436 7.2998C88.2275 6.71387 89.4922 6.4209 90.9375 6.4209C92.373 6.4209 93.6182 6.70898 94.6729 7.28516C95.7275 7.85156 96.543 8.68164 97.1191 9.77539C97.7051 10.8594 98.0029 12.1826 98.0127 13.7451L97.1631 13.9648H86.9238C86.9434 15.4688 87.3633 16.6406 88.1836 17.4805C89.0039 18.3203 90.0977 18.7402 91.4648 18.7402C92.4121 18.7402 93.2324 18.54 93.9258 18.1396C94.6289 17.7393 95.1416 17.1143 95.4639 16.2646L97.7637 16.3525C97.373 17.6807 96.5918 18.6914 95.4199 19.3848C94.2578 20.0781 92.8271 20.4248 91.1279 20.4248ZM86.9531 12.4707H95.0244C94.9463 11.123 94.5557 10.0586 93.8525 9.27734C93.1592 8.48633 92.207 8.09082 90.9961 8.09082C89.834 8.09082 88.9014 8.48633 88.1982 9.27734C87.5049 10.0586 87.0898 11.123 86.9531 12.4707Z" fill="black"/>
<path d="M106.201 20V18.3154C107.031 18.2959 107.598 18.2373 107.9 18.1396C108.213 18.0322 108.369 17.7393 108.369 17.2607C108.369 17.2607 108.369 17.0117 108.369 16.5137C108.369 16.0059 108.369 15.3418 108.369 14.5215C108.369 13.7012 108.369 12.8027 108.369 11.8262C108.369 10.8398 108.369 9.8584 108.369 8.88184C108.369 7.89551 108.369 6.99219 108.369 6.17188C108.369 5.35156 108.369 4.69238 108.369 4.19434C108.369 3.69629 108.369 3.44727 108.369 3.44727C108.369 3.03711 108.193 2.80762 107.842 2.75879C107.49 2.7002 106.968 2.66602 106.274 2.65625V1.00098C106.431 1.00098 106.626 1.00098 106.86 1.00098C107.095 1.00098 107.334 1.00098 107.578 1.00098C107.822 0.991211 108.042 0.986328 108.237 0.986328C108.433 0.986328 108.579 0.986328 108.677 0.986328C109.185 0.976562 109.658 0.966797 110.098 0.957031C110.537 0.947266 111.001 0.9375 111.489 0.927734V12.8076L115.195 9.99512C115.674 9.63379 116.06 9.31641 116.353 9.04297C116.646 8.75977 116.792 8.5791 116.792 8.50098C116.792 8.44238 116.709 8.40332 116.543 8.38379C116.387 8.36426 116.191 8.35449 115.957 8.35449C115.732 8.34473 115.513 8.33984 115.298 8.33984L115.327 6.83105C115.884 6.84082 116.372 6.85059 116.792 6.86035C117.212 6.86035 117.607 6.86035 117.979 6.86035C118.545 6.86035 119.126 6.86035 119.722 6.86035C120.327 6.85059 121.025 6.84082 121.816 6.83105V8.41309C121.729 8.41309 121.602 8.41309 121.436 8.41309C121.279 8.40332 121.152 8.40332 121.055 8.41309C120.752 8.42285 120.493 8.45703 120.278 8.51562C120.063 8.57422 119.819 8.69629 119.546 8.88184C119.272 9.06738 118.882 9.35059 118.374 9.73145L114.609 12.5439L119.78 17.4658C120.142 17.8174 120.464 18.0469 120.747 18.1543C121.04 18.2617 121.362 18.3203 121.714 18.3301C121.831 18.3301 121.948 18.3301 122.065 18.3301C122.183 18.3203 122.31 18.3154 122.446 18.3154V20C122.095 20 121.714 20 121.304 20C120.903 19.9902 120.513 19.9854 120.132 19.9854C119.761 19.9756 119.424 19.9707 119.121 19.9707C118.379 19.9707 117.715 19.9756 117.129 19.9854C116.553 19.9951 115.947 20 115.312 20V18.3154C115.469 18.3154 115.625 18.3154 115.781 18.3154C115.938 18.3154 116.055 18.3105 116.133 18.3008C116.504 18.2812 116.689 18.2129 116.689 18.0957C116.689 18.0078 116.631 17.9004 116.514 17.7734C116.396 17.6465 116.24 17.4951 116.045 17.3193L112.339 13.7891L111.489 14.3604V17.334C111.489 17.7344 111.611 17.998 111.855 18.125C112.109 18.252 112.695 18.3154 113.613 18.3154V20C113.086 20 112.515 20 111.899 20C111.284 19.9902 110.635 19.9805 109.951 19.9707C109.834 19.9707 109.624 19.9756 109.321 19.9854C109.019 19.9854 108.672 19.9854 108.281 19.9854C107.9 19.9854 107.52 19.9902 107.139 20C106.768 20 106.455 20 106.201 20ZM131.323 20.4248C129.907 20.4248 128.647 20.1416 127.544 19.5752C126.44 19.0088 125.571 18.2031 124.937 17.1582C124.302 16.1133 123.984 14.8682 123.984 13.4229C123.984 11.9873 124.297 10.7471 124.922 9.70215C125.557 8.64746 126.426 7.83691 127.529 7.27051C128.643 6.7041 129.907 6.4209 131.323 6.4209C132.729 6.4209 133.984 6.7041 135.088 7.27051C136.191 7.82715 137.065 8.62793 137.71 9.67285C138.354 10.7178 138.677 11.9678 138.677 13.4229C138.677 14.8486 138.359 16.0889 137.725 17.1436C137.09 18.1885 136.221 18.999 135.117 19.5752C134.014 20.1416 132.749 20.4248 131.323 20.4248ZM131.309 18.5791C132.578 18.5791 133.584 18.1152 134.326 17.1875C135.068 16.25 135.439 14.9854 135.439 13.3936C135.439 11.8018 135.068 10.5469 134.326 9.62891C133.594 8.70117 132.593 8.2373 131.323 8.2373C130.054 8.2373 129.048 8.70117 128.306 9.62891C127.573 10.5469 127.207 11.8066 127.207 13.4082C127.207 15 127.573 16.2598 128.306 17.1875C129.038 18.1152 130.039 18.5791 131.309 18.5791ZM148.345 20.4248C146.929 20.4248 145.669 20.1416 144.565 19.5752C143.462 19.0088 142.593 18.2031 141.958 17.1582C141.323 16.1133 141.006 14.8682 141.006 13.4229C141.006 11.9873 141.318 10.7471 141.943 9.70215C142.578 8.64746 143.447 7.83691 144.551 7.27051C145.664 6.7041 146.929 6.4209 148.345 6.4209C149.751 6.4209 151.006 6.7041 152.109 7.27051C153.213 7.82715 154.087 8.62793 154.731 9.67285C155.376 10.7178 155.698 11.9678 155.698 13.4229C155.698 14.8486 155.381 16.0889 154.746 17.1436C154.111 18.1885 153.242 18.999 152.139 19.5752C151.035 20.1416 149.771 20.4248 148.345 20.4248ZM148.33 18.5791C149.6 18.5791 150.605 18.1152 151.348 17.1875C152.09 16.25 152.461 14.9854 152.461 13.3936C152.461 11.8018 152.09 10.5469 151.348 9.62891C150.615 8.70117 149.614 8.2373 148.345 8.2373C147.075 8.2373 146.069 8.70117 145.327 9.62891C144.595 10.5469 144.229 11.8066 144.229 13.4082C144.229 15 144.595 16.2598 145.327 17.1875C146.06 18.1152 147.061 18.5791 148.33 18.5791ZM157.471 20V18.3154C158.301 18.2959 158.867 18.2373 159.17 18.1396C159.482 18.0322 159.639 17.7393 159.639 17.2607C159.639 17.2607 159.639 17.0117 159.639 16.5137C159.639 16.0059 159.639 15.3418 159.639 14.5215C159.639 13.7012 159.639 12.8027 159.639 11.8262C159.639 10.8398 159.639 9.8584 159.639 8.88184C159.639 7.89551 159.639 6.99219 159.639 6.17188C159.639 5.35156 159.639 4.69238 159.639 4.19434C159.639 3.69629 159.639 3.44727 159.639 3.44727C159.639 3.03711 159.463 2.80762 159.111 2.75879C158.76 2.7002 158.237 2.66602 157.544 2.65625V1.00098C157.7 1.00098 157.896 1.00098 158.13 1.00098C158.364 1.00098 158.604 1.00098 158.848 1.00098C159.092 0.991211 159.312 0.986328 159.507 0.986328C159.702 0.986328 159.849 0.986328 159.946 0.986328C160.454 0.976562 160.928 0.966797 161.367 0.957031C161.807 0.947266 162.271 0.9375 162.759 0.927734V12.8076L166.465 9.99512C166.943 9.63379 167.329 9.31641 167.622 9.04297C167.915 8.75977 168.062 8.5791 168.062 8.50098C168.062 8.44238 167.979 8.40332 167.812 8.38379C167.656 8.36426 167.461 8.35449 167.227 8.35449C167.002 8.34473 166.782 8.33984 166.567 8.33984L166.597 6.83105C167.153 6.84082 167.642 6.85059 168.062 6.86035C168.481 6.86035 168.877 6.86035 169.248 6.86035C169.814 6.86035 170.396 6.86035 170.991 6.86035C171.597 6.85059 172.295 6.84082 173.086 6.83105V8.41309C172.998 8.41309 172.871 8.41309 172.705 8.41309C172.549 8.40332 172.422 8.40332 172.324 8.41309C172.021 8.42285 171.763 8.45703 171.548 8.51562C171.333 8.57422 171.089 8.69629 170.815 8.88184C170.542 9.06738 170.151 9.35059 169.644 9.73145L165.879 12.5439L171.05 17.4658C171.411 17.8174 171.733 18.0469 172.017 18.1543C172.31 18.2617 172.632 18.3203 172.983 18.3301C173.101 18.3301 173.218 18.3301 173.335 18.3301C173.452 18.3203 173.579 18.3154 173.716 18.3154V20C173.364 20 172.983 20 172.573 20C172.173 19.9902 171.782 19.9854 171.401 19.9854C171.03 19.9756 170.693 19.9707 170.391 19.9707C169.648 19.9707 168.984 19.9756 168.398 19.9854C167.822 19.9951 167.217 20 166.582 20V18.3154C166.738 18.3154 166.895 18.3154 167.051 18.3154C167.207 18.3154 167.324 18.3105 167.402 18.3008C167.773 18.2812 167.959 18.2129 167.959 18.0957C167.959 18.0078 167.9 17.9004 167.783 17.7734C167.666 17.6465 167.51 17.4951 167.314 17.3193L163.608 13.7891L162.759 14.3604V17.334C162.759 17.7344 162.881 17.998 163.125 18.125C163.379 18.252 163.965 18.3154 164.883 18.3154V20C164.355 20 163.784 20 163.169 20C162.554 19.9902 161.904 19.9805 161.221 19.9707C161.104 19.9707 160.894 19.9756 160.591 19.9854C160.288 19.9854 159.941 19.9854 159.551 19.9854C159.17 19.9854 158.789 19.9902 158.408 20C158.037 20 157.725 20 157.471 20ZM180.527 20.3662C179.58 20.3662 178.843 20.1807 178.315 19.8096C177.788 19.4287 177.417 18.8867 177.202 18.1836C176.997 17.4805 176.895 16.6553 176.895 15.708V8.47168H174.551V6.97754C174.814 6.96777 175.151 6.94824 175.562 6.91895C175.972 6.87988 176.338 6.8457 176.66 6.81641C176.992 6.78711 177.158 6.77246 177.158 6.77246C177.168 6.69434 177.192 6.49414 177.231 6.17188C177.271 5.83984 177.314 5.47852 177.363 5.08789C177.412 4.6875 177.451 4.33594 177.48 4.0332C177.52 3.7207 177.539 3.54004 177.539 3.49121L180 3.00781V6.83105H183.545V8.47168H180.015V15.3564C180.015 16.2939 180.073 17.0312 180.19 17.5684C180.308 18.0957 180.688 18.3594 181.333 18.3594C181.636 18.3594 181.89 18.2422 182.095 18.0078C182.3 17.7734 182.402 17.3877 182.402 16.8506L183.838 16.6895C183.838 17.9492 183.525 18.877 182.9 19.4727C182.275 20.0684 181.484 20.3662 180.527 20.3662ZM188.862 20.1465C188.218 20.1465 187.744 19.9902 187.441 19.6777C187.148 19.3652 187.002 18.9941 187.002 18.5645C187.002 18.1641 187.153 17.8027 187.456 17.4805C187.759 17.1582 188.228 16.9971 188.862 16.9971C189.478 16.9971 189.941 17.1582 190.254 17.4805C190.566 17.8027 190.723 18.1641 190.723 18.5645C190.723 18.9648 190.571 19.3311 190.269 19.6631C189.976 19.9854 189.507 20.1465 188.862 20.1465Z" fill="#5F6C37"/>
</svg>
